<svg xmlns="http://www.w3.org/2000/svg" viewBox="0 0 1200 720" preserveAspectRatio="xMidYMid slice">
  <defs>
    <linearGradient id="bg" x1="0" y1="0" x2="1" y2="1"><stop stop-color="#c5fff3"/><stop offset=".55" stop-color="#0d5f4a"/><stop offset="1" stop-color="#0a1c29"/></linearGradient>
  </defs>
  <rect width="1200" height="720" fill="url(#bg)"/>
  <path d="M0 190 C150 70 260 215 420 95 C610 -48 720 170 920 50 C1050 -30 1120 78 1200 45 L1200 720 L0 720Z" fill="#0b5b43"/>
  <path d="M0 365 C215 245 370 390 590 260 C760 160 910 340 1200 220 L1200 720 L0 720Z" fill="#063932"/>
  <path d="M540 78 C540 215 500 318 516 442 C534 568 488 618 454 684 L742 684 C710 624 662 559 678 438 C696 308 647 210 648 78Z" fill="#f2ffff" opacity=".92"/>
  <path d="M588 78 C570 218 564 324 576 446 C589 560 578 620 564 684 L662 684 C644 612 626 558 638 438 C651 318 612 210 612 78Z" fill="#a9f7ff" opacity=".55"/>
  <path d="M0 610 C180 558 365 584 515 620 C735 674 965 642 1200 570 L1200 720 L0 720Z" fill="#061f1d"/>
</svg>
